<svg xmlns="http://www.w3.org/2000/svg" version="1.1" xmlns:xlink="http://www.w3.org/1999/xlink" xmlns:svgjs="http://svgjs.dev/svgjs" width="60" height="60"><svg width="60" height="60" viewBox="0 0 60 60" fill="none" xmlns="http://www.w3.org/2000/svg">
<path d="M33.638 9.147L50.362 20.853C50.8677 21.2074 51.2806 21.6784 51.5658 22.2262C51.8509 22.774 51.9998 23.3824 52 24C51.9998 24.6176 51.8509 25.226 51.5658 25.7738C51.2806 26.3216 50.8677 26.7926 50.362 27.147L33.638 38.853C32.5719 39.5998 31.3017 40.0003 30 40C28.6983 40.0003 27.4281 39.5998 26.362 38.853L9.638 27.147C9.13226 26.7926 8.71935 26.3216 8.43423 25.7738C8.14911 25.226 8.00016 24.6176 8 24C8.00016 23.3824 8.14911 22.774 8.43423 22.2262C8.71935 21.6784 9.13226 21.2074 9.638 20.853L26.362 9.147C27.4281 8.40016 28.6983 7.99968 30 8C31.3017 7.99968 32.5719 8.40016 33.638 9.147Z" fill="#FFAFC5"></path>
<path d="M30 41.5C28.3899 41.5023 26.8183 41.0075 25.5 40.083L8.778 28.375C8.0745 27.8826 7.5001 27.2279 7.10351 26.4663C6.70693 25.7047 6.49986 24.8587 6.49986 24C6.49986 23.1413 6.70693 22.2953 7.10351 21.5337C7.5001 20.7721 8.0745 20.1173 8.778 19.625L25.5 7.918C26.8256 7.0115 28.3941 6.52648 30 6.52648C31.6059 6.52648 33.1744 7.0115 34.5 7.918L51.222 19.625C51.9255 20.1173 52.4999 20.7721 52.8965 21.5337C53.2931 22.2953 53.5001 23.1413 53.5001 24C53.5001 24.8587 53.2931 25.7047 52.8965 26.4663C52.4999 27.2279 51.9255 27.8826 51.222 28.375L34.5 40.082C33.182 41.0072 31.6103 41.5025 30 41.5ZM30 9.5C29.0055 9.49863 28.0349 9.80459 27.221 10.376L10.5 22.082C10.1916 22.2978 9.93975 22.5849 9.76588 22.9188C9.59201 23.2527 9.50122 23.6235 9.50122 24C9.50122 24.3764 9.59201 24.7473 9.76588 25.0812C9.93975 25.4151 10.1916 25.7022 10.5 25.918L27.222 37.625C28.0404 38.1849 29.0089 38.4844 30.0005 38.4844C30.9921 38.4844 31.9606 38.1849 32.779 37.625L49.5 25.918C49.8084 25.7022 50.0603 25.4151 50.2341 25.0812C50.408 24.7473 50.4988 24.3764 50.4988 24C50.4988 23.6235 50.408 23.2527 50.2341 22.9188C50.0603 22.5849 49.8084 22.2978 49.5 22.082L32.779 10.376C31.9651 9.80459 30.9945 9.49863 30 9.5Z" fill="#F28080"></path>
<path d="M33.638 21.147L50.362 32.853C50.8677 33.2074 51.2806 33.6784 51.5658 34.2262C51.8509 34.774 51.9998 35.3824 52 36C51.9998 36.6176 51.8509 37.226 51.5658 37.7738C51.2806 38.3216 50.8677 38.7926 50.362 39.147L33.638 50.853C32.5719 51.5998 31.3017 52.0003 30 52C28.6983 52.0003 27.4281 51.5998 26.362 50.853L9.638 39.147C9.13226 38.7926 8.71935 38.3216 8.43423 37.7738C8.14911 37.226 8.00016 36.6176 8 36C8.00016 35.3824 8.14911 34.774 8.43423 34.2262C8.71935 33.6784 9.13226 33.2074 9.638 32.853L26.362 21.147C27.4281 20.4002 28.6983 19.9997 30 20C31.3017 19.9997 32.5719 20.4002 33.638 21.147Z" fill="#BEC6F4"></path>
<path d="M30 53.5C28.3899 53.5023 26.8183 53.0075 25.5 52.083L8.778 40.375C8.0745 39.8827 7.5001 39.2279 7.10351 38.4663C6.70693 37.7047 6.49986 36.8587 6.49986 36C6.49986 35.1413 6.70693 34.2953 7.10351 33.5337C7.5001 32.7721 8.0745 32.1174 8.778 31.625L25.5 19.918C26.8256 19.0115 28.3941 18.5265 30 18.5265C31.6059 18.5265 33.1744 19.0115 34.5 19.918L51.222 31.625C51.9255 32.1174 52.4999 32.7721 52.8965 33.5337C53.2931 34.2953 53.5001 35.1413 53.5001 36C53.5001 36.8587 53.2931 37.7047 52.8965 38.4663C52.4999 39.2279 51.9255 39.8827 51.222 40.375L34.5 52.082C33.182 53.0072 31.6103 53.5025 30 53.5ZM30 21.5C29.0055 21.4986 28.0349 21.8046 27.221 22.376L10.5 34.082C10.1916 34.2978 9.93975 34.5849 9.76588 34.9188C9.59201 35.2527 9.50122 35.6236 9.50122 36C9.50122 36.3765 9.59201 36.7473 9.76588 37.0812C9.93975 37.4151 10.1916 37.7022 10.5 37.918L27.222 49.625C28.0404 50.1849 29.0089 50.4845 30.0005 50.4845C30.9921 50.4845 31.9606 50.1849 32.779 49.625L49.5 37.918C49.8084 37.7022 50.0603 37.4151 50.2341 37.0812C50.408 36.7473 50.4988 36.3765 50.4988 36C50.4988 35.6236 50.408 35.2527 50.2341 34.9188C50.0603 34.5849 49.8084 34.2978 49.5 34.082L32.779 22.376C31.9651 21.8046 30.9945 21.4986 30 21.5Z" fill="#8D9CF4"></path>
<path d="M30 20C28.6983 19.9997 27.4281 20.4002 26.362 21.147L13.714 30L26.362 38.853C27.4283 39.5995 28.6984 40 30 40C31.3016 40 32.5717 39.5995 33.638 38.853L46.286 30L33.638 21.147C32.5719 20.4002 31.3017 19.9997 30 20Z" fill="#F2BDD6"></path>
<path d="M30 41.5C28.3898 41.5027 26.8181 41.0078 25.5 40.083L12.854 31.229C12.6564 31.0907 12.495 30.9068 12.3836 30.6928C12.2722 30.4789 12.214 30.2412 12.214 30C12.214 29.7588 12.2722 29.5211 12.3836 29.3072C12.495 29.0932 12.6564 28.9093 12.854 28.771L25.5 19.918C26.8256 19.0115 28.3941 18.5265 30 18.5265C31.6059 18.5265 33.1744 19.0115 34.5 19.918L47.147 28.772C47.3446 28.9103 47.506 29.0942 47.6174 29.3082C47.7288 29.5221 47.787 29.7598 47.787 30.001C47.787 30.2422 47.7288 30.4799 47.6174 30.6938C47.506 30.9078 47.3446 31.0917 47.147 31.23L34.5 40.082C33.1821 41.0075 31.6103 41.5028 30 41.5ZM16.33 30L27.222 37.625C28.0404 38.1849 29.0089 38.4845 30.0005 38.4845C30.9921 38.4845 31.9606 38.1849 32.779 37.625L43.67 30L32.778 22.375C31.9596 21.8151 30.9911 21.5156 29.9995 21.5156C29.0079 21.5156 28.0394 21.8151 27.221 22.375L16.33 30Z" fill="#BF95BC"></path>
<path d="M50.36 22.354C50.0524 22.3542 49.7524 22.2592 49.501 22.082L32.778 10.375C31.9596 9.81512 30.9911 9.51555 29.9995 9.51555C29.0079 9.51555 28.0394 9.81512 27.221 10.375L10.5 22.082C10.174 22.3045 9.77347 22.3896 9.38518 22.3188C8.9969 22.248 8.65217 22.027 8.42573 21.7037C8.1993 21.3804 8.1094 20.9809 8.17553 20.5918C8.24165 20.2027 8.45848 19.8553 8.779 19.625L25.5 7.918C26.8256 7.0115 28.3941 6.52648 30 6.52648C31.6059 6.52648 33.1744 7.0115 34.5 7.918L51.222 19.625C51.4835 19.808 51.6799 20.0697 51.7825 20.372C51.8851 20.6743 51.8885 21.0014 51.7924 21.3058C51.6962 21.6102 51.5055 21.876 51.2479 22.0645C50.9903 22.253 50.6792 22.3544 50.36 22.354Z" fill="#F29580"></path>
<path d="M50.36 34.354C50.0524 34.3542 49.7524 34.2592 49.501 34.082L32.778 22.375C31.9642 21.8042 30.994 21.4986 30 21.5C29.6022 21.5 29.2206 21.342 28.9393 21.0607C28.658 20.7794 28.5 20.3978 28.5 20C28.5 19.6022 28.658 19.2206 28.9393 18.9393C29.2206 18.658 29.6022 18.5 30 18.5C31.6101 18.4977 33.1817 18.9925 34.5 19.917L51.222 31.625C51.4835 31.808 51.6799 32.0697 51.7825 32.372C51.8851 32.6743 51.8885 33.0014 51.7924 33.3058C51.6962 33.6102 51.5055 33.876 51.2479 34.0645C50.9903 34.253 50.6792 34.3544 50.36 34.354Z" fill="#8D9CF4"></path>
<path d="M30 41.5C28.3899 41.5023 26.8183 41.0075 25.5 40.083L8.778 28.375C8.45218 28.1466 8.23042 27.7982 8.1615 27.4064C8.09258 27.0145 8.18215 26.6113 8.4105 26.2855C8.63885 25.9597 8.98728 25.7379 9.37914 25.669C9.771 25.6001 10.1742 25.6896 10.5 25.918L27.222 37.625C28.0358 38.1958 29.006 38.5014 30 38.5C30.3978 38.5 30.7794 38.658 31.0607 38.9393C31.342 39.2206 31.5 39.6022 31.5 40C31.5 40.3978 31.342 40.7794 31.0607 41.0607C30.7794 41.342 30.3978 41.5 30 41.5Z" fill="#F28080"></path>
</svg><style>@media (prefers-color-scheme: light) { :root { filter: none; } }
@media (prefers-color-scheme: dark) { :root { filter: none; } }
</style></svg>